<svg width="32" height="32" viewBox="0 0 32 32" fill="none" xmlns="http://www.w3.org/2000/svg">
<path d="M27.09 5.81401C25.015 4.86174 22.8255 4.1821 20.576 3.79201C20.5556 3.78858 20.5347 3.79154 20.516 3.80049C20.4974 3.80945 20.482 3.82395 20.472 3.84201C20.19 4.34201 19.878 4.99601 19.66 5.50801C17.2352 5.14003 14.7688 5.14003 12.344 5.50801C12.1008 4.93765 11.8257 4.38143 11.52 3.84201C11.5097 3.82415 11.4943 3.80981 11.4757 3.80089C11.4572 3.79196 11.4363 3.78887 11.416 3.79201C9.16597 4.18001 6.97597 4.86001 4.90197 5.81401C4.88422 5.82078 4.86938 5.83351 4.85997 5.85001C0.711972 12.048 -0.426028 18.094 0.131972 24.064C0.133972 24.092 0.151972 24.12 0.173972 24.138C2.58942 25.9272 5.29115 27.2933 8.16397 28.178C8.18425 28.1844 8.20605 28.1842 8.22619 28.1773C8.24633 28.1705 8.26377 28.1574 8.27597 28.14C8.89197 27.3 9.43997 26.414 9.91197 25.482C9.92181 25.4628 9.92518 25.441 9.92157 25.4197C9.91797 25.3984 9.90759 25.3789 9.89197 25.364C9.88164 25.3542 9.86937 25.3468 9.85597 25.342C8.99429 25.0109 8.15976 24.613 7.35997 24.152C7.33763 24.1394 7.32102 24.1186 7.31357 24.094C7.30613 24.0694 7.30842 24.0429 7.31997 24.02C7.32678 24.0051 7.33707 23.9921 7.34997 23.982C7.51797 23.856 7.68597 23.724 7.84597 23.592C7.86011 23.5806 7.87706 23.5733 7.89503 23.5709C7.913 23.5684 7.9313 23.5709 7.94797 23.578C13.186 25.97 18.856 25.97 24.03 23.578C24.0473 23.5705 24.0662 23.5679 24.0849 23.5703C24.1036 23.5728 24.1212 23.5803 24.136 23.592C24.296 23.724 24.464 23.856 24.632 23.982C24.6456 23.992 24.6565 24.0051 24.6638 24.0203C24.6711 24.0355 24.6745 24.0523 24.6737 24.0692C24.6729 24.086 24.6679 24.1024 24.6593 24.1168C24.6506 24.1313 24.6385 24.1434 24.624 24.152C23.826 24.6172 22.9904 25.0146 22.126 25.34C22.1122 25.345 22.0997 25.353 22.0893 25.3633C22.0789 25.3737 22.071 25.3862 22.066 25.4C22.0613 25.4134 22.0595 25.4275 22.0605 25.4416C22.0616 25.4557 22.0655 25.4695 22.072 25.482C22.552 26.412 23.102 27.3 23.706 28.14C23.7182 28.1574 23.7356 28.1705 23.7558 28.1773C23.7759 28.1842 23.7977 28.1844 23.818 28.178C26.6956 27.2961 29.4017 25.9298 31.82 24.138C31.8321 24.1296 31.8422 24.1186 31.8494 24.1058C31.8567 24.093 31.861 24.0787 31.862 24.064C32.53 17.162 30.744 11.166 27.13 5.85201C27.1263 5.84323 27.1209 5.83531 27.114 5.82877C27.1071 5.82222 27.0989 5.8172 27.09 5.81401ZM10.694 20.428C9.11597 20.428 7.81797 18.98 7.81797 17.204C7.81797 15.426 9.09197 13.978 10.694 13.978C12.308 13.978 13.594 15.438 13.57 17.204C13.57 18.98 12.296 20.428 10.694 20.428ZM21.326 20.428C19.75 20.428 18.45 18.98 18.45 17.204C18.45 15.426 19.724 13.978 21.326 13.978C22.94 13.978 24.228 15.438 24.202 17.204C24.202 18.98 22.94 20.428 21.326 20.428Z" fill="white"/>
</svg>
