<svg width="32" height="32" viewBox="0 0 32 32" fill="none" xmlns="http://www.w3.org/2000/svg">
<path d="M27.9365 22.5174C23.6785 20.4556 22.9999 17.2723 22.9697 17.0362C22.9332 16.7502 22.8917 16.5253 23.2072 16.2344C23.5114 15.9533 24.8609 15.1177 25.2353 14.8563C25.8542 14.4234 26.1268 13.9913 25.9259 13.46C25.7854 13.0925 25.4433 12.9541 25.0829 12.9541C24.9692 12.9544 24.8559 12.9671 24.745 12.992C24.0649 13.1396 23.4046 13.4804 23.0224 13.5725C22.9765 13.5843 22.9293 13.5907 22.8819 13.5914C22.6782 13.5914 22.6009 13.5008 22.6206 13.2555C22.6683 12.512 22.7695 11.0609 22.6522 9.70538C22.4913 7.84037 21.89 6.91629 21.1769 6.09903C20.832 5.70269 19.2303 4 16.1392 4C13.0482 4 11.4486 5.70269 11.1057 6.09411C10.3906 6.91137 9.78993 7.83545 9.63046 9.70047C9.51314 11.056 9.61851 12.5064 9.66207 13.2506C9.67612 13.4839 9.60446 13.5865 9.40073 13.5865C9.35332 13.5857 9.30616 13.5793 9.26023 13.5675C8.87877 13.4755 8.21841 13.1347 7.53838 12.9871C7.42745 12.9622 7.31415 12.9495 7.20047 12.9491C6.83868 12.9491 6.49796 13.0897 6.35746 13.4551C6.15654 13.9864 6.42771 14.4185 7.04873 14.8514C7.42317 15.1128 8.77269 15.9476 9.07688 16.2294C9.3916 16.5204 9.35086 16.7452 9.31433 17.0312C9.28412 17.2709 8.60479 20.4542 4.34758 22.5125C4.09819 22.6333 3.67387 22.8891 4.42205 23.3023C5.59664 23.9516 6.37854 23.8821 6.98621 24.2735C7.50185 24.6059 7.19696 25.3226 7.5721 25.5812C8.03295 25.8996 9.39511 25.5587 11.1549 26.1399C12.6302 26.6262 13.5266 28 16.1427 28C18.7589 28 19.6813 26.6199 21.1305 26.1399C22.8868 25.5587 24.2518 25.8996 24.7133 25.5812C25.0878 25.3226 24.7836 24.6059 25.2992 24.2735C25.9069 23.8821 26.6881 23.9516 27.8634 23.3023C28.6102 22.894 28.1859 22.6382 27.9365 22.5174Z" fill="white"/>
</svg>
