<svg width="70" height="70" viewBox="0 0 70 70" fill="none" xmlns="http://www.w3.org/2000/svg">
<path d="M35 0C35 19.2686 19.3617 34.9069 0 34.9069C19.3617 34.9069 35 50.5452 35 69.8138C35 50.5452 50.6383 34.9069 70 34.9069C50.6383 34.9069 35 19.2686 35 0ZM35 53.8032C31.1835 45.4255 24.3883 38.7234 16.0106 34.9069C24.3883 31.0904 31.0904 24.2952 35 16.0106C38.8165 24.3883 45.6117 31.0904 53.9894 34.9069C45.6117 38.7234 38.8165 45.5186 35 53.8032Z" fill="white"/>
<rect x="50" y="55.1946" width="13.1702" height="13.34" transform="rotate(-44.2772 50 55.1946)" fill="white"/>
</svg>
