<svg width="193" height="308" viewBox="0 0 193 308" fill="none" xmlns="http://www.w3.org/2000/svg">
<path opacity="0.5" d="M86.8386 174.508C74.2957 169.076 61.4563 173.356 58.0856 184.093C49.3139 212.034 66.2309 240.151 54.3566 277.975C66.2309 240.151 94.6392 231.663 103.411 203.722C106.782 192.985 99.3814 179.939 86.8386 174.508Z" fill="#2C1970"/>
<path d="M87.8952 173.984C79.4895 170.343 70.8129 173.237 68.5536 180.435C62.6948 199.1 74.0715 218.024 66.1448 243.277C74.0715 218.024 93.1833 212.306 99.0422 193.64C101.159 186.381 96.3009 177.625 87.8952 173.984Z" fill="#2C1970"/>
<path d="M102.037 182.967L74.2371 171.843C72.9659 171.34 72.1192 170.009 72.5279 168.801L74.0512 164.298L106.682 177.333L105.158 181.836C104.75 183.044 103.308 183.47 102.037 182.967Z" fill="url(#paint0_linear_58_296)"/>
<path d="M138.75 138.318L150.83 170.794C152.286 174.711 151.997 178.68 149.985 181.619L130.616 210.106C130.004 211.066 128.371 210.758 127.626 209.612L105.301 173.18L138.75 138.318Z" fill="url(#paint1_linear_58_296)"/>
<path d="M71.6392 113.738L44.4776 128.838C41.2314 130.688 39.283 133.928 39.2071 137.718L38.0926 174.229C38.0337 175.432 39.4432 176.461 40.6351 176.166L77.5688 166.042L71.6392 113.738Z" fill="url(#paint2_linear_58_296)"/>
<path d="M140.261 29.3663C99.5202 40.3555 55.9576 109.734 70.2989 156.998C70.7458 158.435 71.7198 159.669 73.072 160.221L113.962 177.181C115.314 177.732 116.734 177.614 117.95 176.716C156.804 151.431 164.75 67.2443 140.261 29.3663Z" fill="url(#paint3_linear_58_296)"/>
<path d="M142.121 28.9582C127.918 32.7132 113.44 44.0384 101.338 58.8975C91.3604 54.2736 155.437 81.3146 155.437 81.3146C154.975 61.1774 150.615 42.14 142.121 28.9582Z" fill="url(#paint4_linear_58_296)"/>
<path d="M110.289 119.492C120.566 124.032 131.138 120.461 133.902 111.515C136.666 102.569 130.576 91.6362 120.299 87.0959C110.022 82.5556 99.4496 86.127 96.6854 95.0729C93.9213 104.019 100.012 114.951 110.289 119.492Z" fill="url(#paint5_linear_58_296)"/>
<path d="M130.887 108.684C130.077 116.159 122.564 119.815 113.891 116.962C105.251 113.998 98.947 105.678 99.6224 98.1398C100.465 90.554 108.113 86.9619 116.786 89.8148C125.426 92.779 131.697 101.21 130.887 108.684Z" fill="url(#paint6_linear_58_296)"/>
<path d="M130.535 108.774C130.84 105.662 129.845 102.311 128.122 99.366C128.025 99.6958 127.928 100.026 127.965 100.419C127.78 102.084 127.729 103.813 126.743 105.099C125.821 106.165 124.129 106.742 122.396 106.422C119.93 106.005 117.285 104.126 114.787 103.82C111.689 103.48 109.781 105.832 106.651 105.602C105.153 105.519 103.683 104.823 102.411 103.97C101.508 103.417 100.503 102.691 99.8625 101.761C101.05 108.084 106.663 114.374 113.871 116.786C122.282 119.767 129.902 116.113 130.535 108.774Z" fill="url(#paint7_linear_58_296)"/>
<g opacity="0.4">
<path opacity="0.4" d="M119.994 91.8551C119.73 91.7317 119.334 91.5468 119.069 91.4234C118.673 91.2385 118.377 91.2229 118.181 91.3768C117.853 91.4689 117.789 91.6845 117.693 92.0077C117.534 92.5465 117.934 93.2242 118.594 93.5324L118.726 93.5941C118.99 93.7174 119.254 93.8407 119.518 93.9641C119.915 94.149 120.211 94.1646 120.539 94.0724C120.867 93.9802 121.063 93.8264 121.159 93.5031C121.054 92.841 120.654 92.1634 119.994 91.8551Z" fill="white"/>
<path opacity="0.4" d="M115.564 92.0042C115.327 91.7652 114.923 91.5744 114.621 91.5591C111.061 91.1514 107.877 92.0683 105.741 94.1168C105.307 94.5489 105.546 95.2989 106.019 95.777C106.154 95.8406 106.255 96.016 106.39 96.0796C106.929 96.3339 107.398 96.301 107.799 95.9808C109.535 94.2525 112.048 93.5286 114.869 93.842C115.172 93.8574 115.507 93.7609 115.707 93.6008C115.908 93.4406 116.006 93.1051 115.938 92.8178C116.003 92.5941 115.935 92.3068 115.564 92.0042Z" fill="white"/>
</g>
<path d="M72.6353 152.734C72.7138 155.878 72.8937 159.203 73.1156 162.404L92.1891 169.984C92.0705 169.371 91.8085 168.701 91.6479 168.212C91.2081 166.623 90.9116 165.09 90.6152 163.558C89.8789 160.435 89.4715 157.302 88.9628 153.988C88.1901 147.597 87.8897 141.253 88.1036 134.83C88.4894 122.108 90.7644 109.572 94.8024 97.5946C96.9648 91.6629 99.2705 85.7882 102.293 80.1985L103.337 78.0667L104.525 75.9919L106.899 71.8423L109.561 67.8067L110.892 65.7889L112.366 63.8281C119.761 53.468 128.794 44.0413 138.662 35.5126C127.57 42.8476 117.373 51.3871 108.442 60.9956L106.723 62.7177L105.106 64.6215L101.87 68.4291L98.9221 72.3508L97.4479 74.3116L96.033 76.5789C92.2511 82.0085 89.0428 87.666 86.0372 93.687C80.1101 105.48 76.2079 118.501 74.0687 132.082C72.9695 138.719 72.5873 145.641 72.6353 152.734Z" fill="white"/>
<path d="M79.5176 202.534C76.3291 201.274 74.6271 198.052 75.371 195.371L86.2618 161.284C87.5136 157.104 89.3875 153.028 91.7988 149.307L101.239 134.055L104.572 135.372L102.524 153.545C101.997 158.012 101.035 162.307 99.4506 166.497L87.1105 200.011C86.0344 202.702 82.7061 203.795 79.5176 202.534Z" fill="url(#paint8_linear_58_296)"/>
<defs>
<linearGradient id="paint0_linear_58_296" x1="88.121" y1="177.463" x2="90.7016" y2="170.941" gradientUnits="userSpaceOnUse">
<stop stop-color="white"/>
<stop offset="0.129" stop-color="#EFF6FF"/>
<stop offset="0.5153" stop-color="#C6DFFF"/>
<stop offset="0.8188" stop-color="#ACD0FF"/>
<stop offset="1" stop-color="#A2CBFF"/>
</linearGradient>
<linearGradient id="paint1_linear_58_296" x1="108.493" y1="163.315" x2="151.939" y2="176.797" gradientUnits="userSpaceOnUse">
<stop stop-color="#411F86"/>
<stop offset="0.4985" stop-color="#6829AE"/>
<stop offset="1" stop-color="#3A1D7F"/>
</linearGradient>
<linearGradient id="paint2_linear_58_296" x1="38.7277" y1="137.587" x2="82.0771" y2="151.043" gradientUnits="userSpaceOnUse">
<stop stop-color="#2C1970"/>
<stop offset="0.5015" stop-color="#6929AF"/>
<stop offset="1" stop-color="#2C1970"/>
</linearGradient>
<linearGradient id="paint3_linear_58_296" x1="83.0275" y1="51.161" x2="129.764" y2="172.357" gradientUnits="userSpaceOnUse">
<stop stop-color="white"/>
<stop offset="0.2088" stop-color="#FBFDFF"/>
<stop offset="0.416" stop-color="#EFF6FF"/>
<stop offset="0.6226" stop-color="#DBEBFF"/>
<stop offset="0.8275" stop-color="#BFDBFF"/>
<stop offset="1" stop-color="#A2CBFF"/>
</linearGradient>
<linearGradient id="paint4_linear_58_296" x1="118.314" y1="37.9406" x2="137.818" y2="88.1495" gradientUnits="userSpaceOnUse">
<stop stop-color="#2C1970"/>
<stop offset="0.557292" stop-color="#2C1970"/>
<stop offset="1" stop-color="white"/>
</linearGradient>
<linearGradient id="paint5_linear_58_296" x1="105.817" y1="86.089" x2="118.017" y2="122.883" gradientUnits="userSpaceOnUse">
<stop stop-color="#F1A4FA"/>
<stop offset="0.0833177" stop-color="#080310"/>
<stop offset="0.4305" stop-color="#6E29B1"/>
<stop offset="0.7462" stop-color="#6E29B1"/>
<stop offset="1" stop-color="#6E29B1"/>
</linearGradient>
<linearGradient id="paint6_linear_58_296" x1="107.164" y1="89.3347" x2="115.72" y2="119.585" gradientUnits="userSpaceOnUse">
<stop stop-color="#2559CD"/>
<stop offset="0.3525" stop-color="#2255CC"/>
<stop offset="0.6915" stop-color="#1B4AC7"/>
<stop offset="1" stop-color="#0F38C1"/>
</linearGradient>
<linearGradient id="paint7_linear_58_296" x1="112.096" y1="98.3839" x2="117.854" y2="118.872" gradientUnits="userSpaceOnUse">
<stop stop-color="#0F38C1"/>
<stop offset="0.3481" stop-color="#143FC3"/>
<stop offset="0.8476" stop-color="#2052CA"/>
<stop offset="1" stop-color="#2559CD"/>
</linearGradient>
<linearGradient id="paint8_linear_58_296" x1="76.5399" y1="143.076" x2="96.4918" y2="198.299" gradientUnits="userSpaceOnUse">
<stop stop-color="#FDD661"/>
<stop offset="0.0001" stop-color="#2C1970"/>
<stop offset="0.5015" stop-color="#6929AF"/>
<stop offset="1" stop-color="#6829AF"/>
</linearGradient>
</defs>
</svg>
