<svg width="107" height="106" viewBox="0 0 107 106" fill="none" xmlns="http://www.w3.org/2000/svg">
<path d="M28.309 44.2646C27.7872 43.7075 27.4542 43.352 27.238 42.9358C26.8568 42.202 26.8388 41.2795 26.7891 38.7304C26.6917 34.4239 26.8086 33.2936 27.4322 32.4362M28.309 44.2646L27.4322 32.4362M28.309 44.2646C29.0106 45.0246 29.2834 45.5117 29.4782 46.3107L28.309 44.2646ZM27.4322 32.4362L29.454 33.9067C29.453 33.9081 29.452 33.9093 29.4511 33.9105C29.4501 33.912 29.4491 33.9133 29.4482 33.9146L27.4322 32.4362ZM11.5173 95.8398H29.5367H47.5366V83.6859C47.5366 76.6794 47.5413 72.961 47.5909 70.9128C47.6372 69.0041 47.7044 68.0867 48.1708 67.154C48.6814 66.1328 49.4422 65.2916 50.4958 64.7214C51.2495 64.3136 52.0662 64.0915 52.8967 63.9808L52.9539 57.5157L52.954 57.5128L52.9545 57.4475C52.9924 52.5198 53.0135 49.7743 53.2931 47.8117C53.5996 45.6603 54.2282 44.3711 55.1415 42.4979L55.193 42.3923C56.8491 38.9849 58.3074 36.0162 62.1173 33.5122C61.9447 33.3345 61.769 33.1163 61.6163 32.8496C61.3574 32.3974 61.244 31.9458 61.2004 31.5506C61.1368 30.9738 61.2188 30.3285 61.2737 29.8967C61.278 29.8631 61.2821 29.8308 61.286 29.7999C61.2905 29.7636 61.2952 29.7265 61.2999 29.6885C61.4341 28.6198 61.6567 26.8453 61.6839 23.6088C61.7239 17.6501 61.6602 17.0631 61.4757 16.3599C60.7606 13.7095 58.7967 11.3296 56.4362 10.1947L56.4293 10.1914C53.1997 8.62655 47.8282 7.88934 42.5873 8.47644C40.5249 8.72218 37.9674 9.45242 36.4521 10.202L36.4454 10.2053C35.6524 10.5945 34.74 11.2514 33.9155 12.0448C33.0816 12.8473 32.4757 13.6563 32.1764 14.2733L11.5173 95.8398ZM11.5173 95.8398V98.3398H9.01733L11.5173 95.8398ZM62.4802 33.2796C62.8225 33.065 63.0057 32.9481 63.1219 32.8663C63.1478 32.8481 63.1613 32.8379 63.1653 32.8348C63.1694 32.8317 63.1637 32.836 63.1513 32.8467C63.1269 32.8679 63.0438 32.942 62.9472 33.0688C62.8715 33.1681 62.7929 33.2924 62.7252 33.4407L64.0218 31.8711L62.4802 33.2796ZM62.5514 34.4022C62.5514 34.4023 62.5514 34.4023 62.5513 34.4019C62.5513 34.402 62.5513 34.402 62.5513 34.4021L62.5514 34.4022ZM15.6859 84.5502C15.679 84.555 15.6722 84.5598 15.6653 84.5645C15.6627 84.5661 15.6627 84.5661 15.665 84.5646L14.2592 82.4973L15.6859 84.5502ZM37.7163 68.9013C37.7157 68.9032 37.7151 68.905 37.7146 68.9069C37.714 68.9089 37.7133 68.9109 37.7127 68.9129L35.3242 68.1746L37.7163 68.9013Z" fill="white" stroke="white" stroke-width="5"/>
<path d="M74.5095 32.2141C70.9486 32.918 67.9259 34.4086 65.5451 36.6238C62.833 39.191 61.1353 42.1723 60.4107 45.6297C60.0794 47.2652 60.0173 48.5074 60.0173 55.3187V63.1238L60.5142 63.7035L61.0111 64.2832L76.8697 64.3453L92.7076 64.3867L93.3908 63.7863L94.074 63.1859L94.0533 54.9254C94.0326 45.5262 93.9705 45.05 92.2314 41.5098C90.1611 37.307 86.7244 34.3672 82.1697 32.8973C80.4927 32.3383 79.8302 32.2348 77.615 32.1934C76.1865 32.152 74.7994 32.1727 74.5095 32.2141ZM81.1345 36.6031C85.0474 37.8867 88.3392 41.1578 89.6642 45.1328C90.099 46.3957 90.1404 46.934 90.2025 53.5797L90.2646 60.6602L77.056 60.6187L63.8474 60.5566V53.9316C63.8474 46.4785 63.9095 46.0645 65.2552 43.2695C66.8287 40.0398 70.3068 37.2242 73.8263 36.334C75.5654 35.8992 79.3748 36.0441 81.1345 36.6031Z" fill="white"/>
<path d="M96.5484 71.3813L99.2673 71.3112V69.9559V68.6133H77.0974H54.9275V69.9766V71.3398H57.2224C59.0683 71.3398 60.3362 71.4317 61.1435 71.7726C61.5711 71.9531 61.901 72.2152 62.1123 72.5899C62.3172 72.9533 62.3806 73.3703 62.3806 73.8066C62.3806 74.2416 62.3243 74.658 62.1318 75.0208C61.9312 75.3987 61.6124 75.6645 61.1916 75.8467C60.7844 76.023 60.2715 76.126 59.6506 76.1878C59.0252 76.2501 58.2579 76.2734 57.3259 76.2734H54.9275V77.6367V79H57.5537H60.6798H60.8869L61.0334 79.1464L61.6338 79.7468C62.0119 80.125 62.2656 80.5627 62.3455 81.0493C62.4256 81.5365 62.3234 82.024 62.0748 82.4861C61.957 82.716 61.8209 82.9526 61.6108 83.1461C61.3889 83.3503 61.1222 83.4738 60.7936 83.5524C60.1827 83.6985 59.2155 83.7164 57.5982 83.7266H57.5951H54.9275V85.1934V86.6602H57.6365H57.729C59.2596 86.6601 60.0944 86.6601 60.596 86.7326C60.8696 86.7721 61.0917 86.8383 61.2915 86.964C61.4692 87.0758 61.6027 87.2207 61.7134 87.3408C61.7186 87.3464 61.7237 87.352 61.7288 87.3575C62.5952 88.2784 62.5824 89.5812 61.7627 90.5297C61.7624 90.53 61.7622 90.5303 61.7619 90.5306L61.2665 91.1086L61.1206 91.2788L60.8965 91.2831L57.6668 91.3452L54.9275 91.3979V92.75V94.1021L57.6668 94.1548L60.8965 94.2169L61.1206 94.2212L61.2665 94.3914L61.7619 94.9694C61.7622 94.9697 61.7624 94.97 61.7627 94.9703C62.5824 95.9188 62.5952 97.2216 61.7288 98.1425C61.7256 98.146 61.7224 98.1494 61.7191 98.1529C61.6054 98.2762 61.4701 98.423 61.2894 98.5363C61.0905 98.6611 60.8701 98.7275 60.5998 98.7672C60.1053 98.8399 59.2906 98.8399 57.8111 98.8398L57.7193 98.8398H55.1956L55.2083 98.9075C55.4838 100.291 56.3682 101.724 57.606 102.902C58.8416 104.079 60.3893 104.962 61.9371 105.282C62.08 105.309 62.4858 105.341 63.2132 105.369C63.9265 105.397 64.9112 105.421 66.1764 105.441C68.7062 105.479 72.3469 105.5 77.1595 105.5C84.9352 105.5 88.7878 105.5 90.9787 105.351C92.0688 105.277 92.7158 105.168 93.2151 105.015C93.7124 104.863 94.0845 104.662 94.6431 104.36L94.6435 104.359C95.5816 103.852 96.5511 102.973 97.3518 101.945C98.1379 100.936 98.7308 99.8233 98.9772 98.8398H96.4755C94.9644 98.8398 94.1255 98.836 93.6121 98.7623C93.3411 98.7234 93.12 98.6605 92.9214 98.5459C92.7317 98.4366 92.594 98.2967 92.4771 98.1747C92.0928 97.8004 91.845 97.3561 91.7795 96.8456C91.7143 96.3381 91.836 95.8181 92.0947 95.3006L92.0947 95.3006L92.0972 95.2958C92.2224 95.052 92.3875 94.8301 92.6379 94.6516C92.8822 94.4774 93.176 94.3672 93.5241 94.2926C94.2013 94.1475 95.2142 94.1133 96.7654 94.1133H99.2673V92.75V91.3867H96.7654C95.887 91.3867 95.0785 91.3606 94.4493 91.3183C94.1353 91.2972 93.8609 91.2717 93.6424 91.2426C93.4458 91.2164 93.2347 91.1805 93.0903 91.1186L93.0837 91.1157L93.0772 91.1127C92.3356 90.7694 91.9069 90.0463 91.7966 89.3212C91.6862 88.5958 91.8813 87.7777 92.5043 87.2378L92.5043 87.2377L92.5102 87.2328C92.6494 87.1159 92.8014 86.9974 93.0045 86.9055C93.2066 86.814 93.4301 86.7617 93.7062 86.7284C94.2382 86.6644 95.0841 86.6602 96.5791 86.6602H99.2673V85.1934V83.7266H96.6412C95.7241 83.7266 94.8901 83.7058 94.2501 83.6661C93.9309 83.6463 93.6527 83.6214 93.4334 83.5907C93.3242 83.5754 93.2222 83.5577 93.1335 83.5365C93.0579 83.5185 92.9517 83.489 92.8561 83.4348C92.3918 83.1782 92.0724 82.6874 91.9038 82.1995C91.7329 81.7052 91.6816 81.115 91.8628 80.5983C91.9686 80.2928 92.1112 80.0018 92.352 79.7592C92.5959 79.5135 92.9037 79.3538 93.2798 79.2468C93.9967 79.0428 95.0863 79 96.7654 79H99.2673V77.6574V76.2846L96.5487 76.2319L96.5485 76.2319C94.9961 76.2013 94.1469 76.181 93.626 76.0961C93.35 76.0511 93.1301 75.9833 92.9305 75.8677C92.7411 75.758 92.5961 75.6185 92.4671 75.4946L92.4645 75.4921L92.4645 75.4921L92.4575 75.4852C91.517 74.5446 91.517 73.0687 92.4575 72.1281L92.4575 72.128L92.4645 72.1212C92.5961 71.9947 92.7428 71.8546 92.9358 71.7442C93.1364 71.6294 93.3575 71.562 93.6342 71.5171C94.1571 71.4323 95.0056 71.412 96.5471 71.3814C96.5475 71.3814 96.548 71.3814 96.5484 71.3813ZM82.7936 80.9356L82.7967 80.9427L82.7995 80.9499C82.9039 81.2106 82.9883 81.5922 83.0493 81.9821C83.1117 82.3814 83.1554 82.8272 83.1664 83.2338L83.1666 83.2338V83.2473C83.1666 85.67 81.7975 87.8816 79.6245 88.8776L79.6245 88.8776L79.6192 88.88L79.3572 88.9964V91.1352C79.3572 92.3102 79.3542 92.9906 79.2739 93.4278C79.2299 93.6675 79.1585 93.8654 79.0376 94.047C78.9256 94.2152 78.7848 94.3464 78.6596 94.4617C77.7384 95.3281 76.4353 95.3149 75.4867 94.4946L75.4867 94.4946L75.4816 94.4901C75.3478 94.3712 75.1991 94.2388 75.0799 94.0723C74.9506 93.8917 74.8705 93.6942 74.8179 93.4509C74.7225 93.0098 74.7026 92.3223 74.6722 91.1292C74.6722 91.1285 74.6722 91.1278 74.6722 91.1272L74.5991 88.9164L74.0728 88.6394C74.0723 88.6392 74.0718 88.6389 74.0712 88.6386C72.0821 87.6088 70.7676 85.1569 70.9468 82.8174C71.0597 81.197 71.6567 79.9673 72.855 78.7912L72.855 78.7912L72.8588 78.7875C74.6004 77.1137 77.3893 76.6397 79.5872 77.6809C80.2349 77.9821 80.8978 78.4885 81.4596 79.0584C82.0213 79.6284 82.5136 80.294 82.7936 80.9356Z" fill="white" stroke="white"/>
<path d="M76.1865 81.6532C75.0892 82.2743 74.8615 83.4958 75.6689 84.4481C76.7869 85.7938 78.8572 85.0278 78.8572 83.2473C78.8572 82.5848 78.733 82.3364 78.2154 81.9016C77.5115 81.3012 76.9318 81.2391 76.1865 81.6532Z" fill="white"/>
</svg>
