<svg width="104" height="106" viewBox="0 0 104 106" fill="none" xmlns="http://www.w3.org/2000/svg">
<path d="M10.5731 0.600444C9.99337 1.20083 9.97266 1.26294 9.97266 3.29185V5.38287H7.28126C4.38282 5.38287 3.36837 5.6313 2.9543 6.37662C2.56094 7.12193 2.68516 7.97076 3.26485 8.57115C3.78243 9.08873 3.92735 9.10943 5.95626 9.10943H8.10938V21.9454V34.7813H5.93555C3.88594 34.7813 3.72032 34.8227 3.24415 35.2989C2.54024 35.9821 2.54024 37.1001 3.24415 37.7833C3.72032 38.2801 3.82383 38.3008 6.86719 38.3008H9.97266V40.454C9.97266 42.2758 10.0348 42.6692 10.3867 43.1247C11.2563 44.2219 13.016 43.9321 13.4715 42.6278C13.5957 42.2551 13.6992 41.1372 13.6992 40.1434V38.3008H15.459H17.2188V40.1434C17.2188 41.1372 17.3223 42.2551 17.4465 42.6278C17.8813 43.87 19.5789 44.2219 20.4484 43.2282C20.7797 42.8969 20.8625 42.4001 20.9039 40.5782L20.9867 38.3629L22.2289 38.218C24.8168 37.9489 27.8809 35.8165 28.9988 33.477C30.7793 29.7711 30.241 25.9204 27.5082 23.0426L26.4524 21.9247L27.4047 20.9516C30.3238 17.929 30.8621 13.6848 28.7918 10.0204C27.5082 7.74302 24.6719 5.87974 22.1875 5.65201L20.9453 5.52779V3.6024C20.9453 1.40787 20.7797 0.786772 20.0137 0.289897C19.5789 5.31645e-05 19.3098 -0.02065 18.7094 0.124272C17.5914 0.393413 17.2188 1.26294 17.2188 3.56099V5.38287H15.459H13.6992V3.6438C13.6992 1.55279 13.4301 0.703959 12.6434 0.3106C11.7738 -0.144869 11.2563 -0.0620562 10.5731 0.600444ZM22.5188 9.41998C27.1563 10.7864 27.6531 17.1836 23.3262 19.5231C22.5395 19.9579 22.1668 19.9786 17.1774 20.0407L11.8359 20.1028V14.6165V9.10943H16.6598C20.3242 9.10943 21.732 9.19224 22.5188 9.41998ZM23.1192 24.3055C25.1274 25.2372 26.1418 26.7071 26.2867 28.8602C26.4317 31.3032 25.4379 33.0422 23.2227 34.2016C22.3324 34.6571 22.0633 34.6778 17.0738 34.7399L11.8359 34.8227V29.3157V23.8086H16.9703C21.8977 23.8086 22.1254 23.8293 23.1192 24.3055Z" fill="white"/>
<path d="M76.5332 5.92111C72.434 7.43243 68.9973 8.69532 68.8937 8.73673C68.5832 8.86095 69.9082 12.1113 70.2394 12.0492C70.4051 12.0078 72.5996 11.2211 75.1461 10.3102C77.6719 9.37853 79.8043 8.67462 79.8457 8.73673C80.0734 8.94376 77.8582 13.809 76.1191 16.9766C66.2023 34.9469 47.9008 49.377 27.2598 55.5258C21.2559 57.3063 16.7426 58.093 10.8836 58.3621C7.96445 58.4863 7.42616 58.5691 7.05351 58.9211C6.3703 59.5422 6.20468 60.1633 6.53593 60.9707C7.0121 62.1094 7.36405 62.1922 11.3184 62.0473C26.7629 61.4676 41.8141 56.416 54.3187 47.6172C61.9168 42.2551 69.0387 35.0918 74.2144 27.5766C77.1129 23.3945 80.1562 17.9289 81.7711 14.0781C82.123 13.2293 82.5578 12.1527 82.7441 11.6973L83.0961 10.8692L84.6281 15.1133C85.4769 17.4527 86.2016 19.4609 86.2637 19.6059C86.3465 19.875 89.5141 18.8399 89.6176 18.4879C89.7004 18.2602 84.359 3.47814 84.1312 3.29181C84.0484 3.2297 80.6324 4.40978 76.5332 5.92111Z" fill="white"/>
<path d="M88.6445 74.9453V106H95.8906H103.137V74.9453V43.8906H95.8906H88.6445V74.9453Z" fill="white"/>
<path d="M59.391 58.5277C59.3082 58.5898 59.2461 69.3141 59.2461 82.3363V106H66.5957H73.9453L73.9039 82.2328L73.8418 58.4863L66.6785 58.4242C62.7449 58.4035 59.4738 58.4449 59.391 58.5277Z" fill="white"/>
<path d="M30.0547 89.541V106H37.4043H44.7539V89.541V73.082H37.4043H30.0547V89.541Z" fill="white"/>
<path d="M0.863281 96.8906V106H8.10938H15.3555V96.8906V87.7812H8.10938H0.863281V96.8906Z" fill="white"/>
</svg>
