<svg width="99" height="100" viewBox="0 0 99 100" fill="none" xmlns="http://www.w3.org/2000/svg">
<path d="M49.0684 0.582612C43.6649 1.43144 39.5657 5.19941 38.4891 10.3131C37.102 16.8553 41.1598 23.2732 47.7227 24.9295C49.5446 25.385 52.9192 25.24 54.6996 24.5982C59.8547 22.7971 63.3535 17.4764 62.9602 12.0521C62.6496 7.84941 60.1032 3.87441 56.5008 1.99042C54.1821 0.76894 51.3043 0.230659 49.0684 0.582612ZM52.2774 3.27402C52.2774 4.22636 52.3188 4.30917 53.002 4.64042C54.3477 5.28222 55.5485 6.93847 55.859 8.59472L56.0039 9.27793H54.1407C52.443 9.27793 52.2774 9.23652 52.2774 8.88457C52.2774 8.65683 52.0289 8.28417 51.7391 8.05644C50.2278 6.87636 48.1989 8.4291 49.0684 10.1061C49.4203 10.81 50.0828 11.1412 51.0973 11.1412C52.6707 11.1412 54.8032 12.7353 55.5485 14.433C55.9418 15.3853 55.9418 17.4557 55.5485 18.408C55.1137 19.4225 54.0164 20.6025 53.0641 21.0994C52.3188 21.4928 52.2774 21.5549 52.2774 22.5279V23.5631H50.5176H48.7578V22.4451C48.7578 21.41 48.7164 21.3271 48.1367 21.0787C47.1637 20.6646 45.9215 19.174 45.5696 17.9525C45.3832 17.3521 45.2383 16.7932 45.2383 16.6896C45.2383 16.6068 46.025 16.524 46.9981 16.524C48.675 16.524 48.7785 16.5447 48.9649 17.0209C49.6274 18.8014 52.2774 18.3459 52.2774 16.4619C52.2774 15.3232 51.7184 14.8471 50.2485 14.64C47.8262 14.3088 46.1492 12.9424 45.5282 10.81C44.845 8.40839 45.9629 5.75839 48.1989 4.59902C48.6957 4.32988 48.7578 4.18496 48.7578 3.27402V2.23886H50.5176H52.2774V3.27402ZM43.5821 12.901V14.6607H41.8223H40.0625V12.901V11.1412H41.8223H43.5821V12.901ZM61.1797 12.901V14.6607H59.42H57.6602V12.901V11.1412H59.42H61.1797V12.901Z" fill="white"/>
<path d="M48.7578 31.5337V36.0056L50.5797 35.9435L52.3809 35.8814L52.443 31.4716L52.4844 27.0826H50.6211H48.7578V31.5337Z" fill="white"/>
<path d="M39.9383 37.9103C39.8761 38.0759 39.8554 38.8833 39.8968 39.7321L39.959 41.2642H52.3808H64.8027V39.5044V37.7446L52.4222 37.6825C42.1949 37.6411 40.0418 37.6825 39.9383 37.9103Z" fill="white"/>
<path d="M36.3359 46.647V48.4067H48.7578H61.1797V46.647V44.8872H48.7578H36.3359V46.647Z" fill="white"/>
<path d="M41.7188 53.686V55.4458H54.1406H66.5625V53.686V51.9263H54.1406H41.7188V53.686Z" fill="white"/>
<path d="M58.5918 72.7505H69.582V70.2485C69.582 68.7571 69.5754 68.0448 69.515 67.6384C69.4871 67.4504 69.4524 67.3684 69.4235 67.3191C69.3907 67.2631 69.3436 67.2099 69.2185 67.09L69.211 67.0828L69.2038 67.0753L68.8545 66.7114H45.9215H22.9626L19.2377 70.4562L15.5117 74.2021V83.7677C15.5117 86.4576 15.5272 88.8977 15.5556 90.6641C15.5677 91.4106 15.5819 92.0344 15.5982 92.505C15.6493 92.4566 15.7027 92.4057 15.7582 92.3527C16.2871 91.8469 16.9979 91.1465 17.7613 90.3728C18.5336 89.59 19.3122 88.8479 19.9469 88.2788C20.2639 87.9945 20.5483 87.7504 20.7802 87.5648C20.9933 87.3943 21.2096 87.2335 21.3715 87.1616C21.5165 87.0971 21.7086 87.0633 21.9152 87.0383C22.1381 87.0113 22.4377 86.9886 22.8338 86.969C23.6272 86.9296 24.8407 86.9011 26.6697 86.8804C30.3298 86.839 36.4818 86.8286 46.7289 86.8286H71.0136L84.6968 73.1454L98.1684 59.6739L96.9183 58.4558C96.918 58.4555 96.9177 58.4552 96.9173 58.4549C95.7729 57.3522 95.1319 56.9047 94.689 56.7766C94.1608 56.6365 93.9788 56.596 93.8095 56.6027C93.64 56.6094 93.46 56.6645 92.9399 56.8487C92.8755 56.8715 92.6799 56.9868 92.2603 57.3351C91.8618 57.6658 91.309 58.1648 90.5465 58.8861C89.0228 60.3272 86.688 62.6309 83.1266 66.1923C80.4781 68.8408 78.1877 71.1726 76.5604 72.867C75.7464 73.7147 75.1005 74.4006 74.6593 74.8859C74.438 75.1294 74.2723 75.3179 74.1636 75.4494C74.1303 75.4896 74.1046 75.5219 74.0854 75.5469C74.0499 75.7337 73.9622 75.9128 73.8821 76.0485C73.7685 76.241 73.6134 76.4408 73.4353 76.6084L72.9478 77.1163L72.8002 77.27H72.5871H59.834H47.1016H46.6016V76.77V75.0103V73.2505V72.7505H47.1016H58.5918Z" fill="white" stroke="white"/>
<path d="M38.1992 60.7251V62.4849H50.6211H63.043V60.7251V58.9653H50.6211H38.1992V60.7251Z" fill="white"/>
<path d="M1.43359 83.8091V99.2505H6.21289H10.9922V83.8091V68.3677H6.21289H1.43359V83.8091Z" fill="white" stroke="white"/>
</svg>
