<svg width="531" height="764" viewBox="0 0 531 764" fill="none" xmlns="http://www.w3.org/2000/svg">
<path opacity="0.3" d="M602.421 762.98C630.868 754.666 652.302 729.114 658.983 700.033C665.899 669.907 654.822 639.518 631.215 620.316C608.421 601.795 575.822 594.522 548.796 607.3C523.516 619.254 502.911 649.888 517.401 678.155C529.64 702.024 561.99 714.285 585.785 701.91C609.58 689.535 619.478 658.709 613.253 633.083C605.39 600.753 573.118 584.79 544.105 577.551C508.958 568.714 468.773 569.766 438.871 546.005C415.295 527.271 402.285 496.493 402.477 466.25C402.476 451.1 406.169 436.202 413.22 422.903C421.037 408.464 435.17 395.601 451.525 392.875C469.72 389.839 483.85 403.333 486.388 421.293C489.161 441.042 478.574 459.177 468.415 474.99C449.007 505.18 423.62 535.645 388.767 546.89C357.898 556.808 319.547 550.5 300.847 521.035C279.65 487.629 290.302 445.348 308.251 413.412C317.992 396.088 329.881 380.081 341.572 364.107C353.456 347.865 365.459 331.693 376.594 314.874C397.661 282.983 415.581 248.333 421.731 209.933C427.504 173.912 422.509 135.927 401.158 105.797C381.315 77.7134 351.061 58.9871 319.474 47.8026C280.011 33.7838 237.887 30.063 196.716 24.8467L64.6588 8.10456L1.33674 0.0812085C-0.0260159 -0.0919525 -0.447152 2.05432 0.906697 2.23792L131.379 18.7826C173.825 24.1584 216.505 28.5772 258.76 35.3876C296.376 41.4605 334.369 51.4304 366.007 74.0839C380.02 84.1152 392.576 96.4406 402.077 111.06C412.295 127.04 418.713 145.239 420.815 164.193C430.518 246.604 374.925 313.986 330.459 375.698C309.283 405.106 287.672 437.719 287.041 475.69C286.754 492.104 290.428 508.997 299.396 522.819C307.639 535.281 319.712 544.576 333.692 549.226C363.883 559.602 396.505 550.675 421.481 531.906C435.435 521.389 447.326 508.254 457.786 494.216C468.465 479.869 479.588 464.149 485.51 447.033C490.549 432.457 490.74 414.902 481.011 402.161C472.313 390.782 458.075 387.954 445.073 392.249C416.753 401.603 402.113 432.582 400.498 461.185C398.906 489.552 408.951 518.833 428.381 539.336C453.13 565.414 489.309 569.641 522.515 575.393C553.965 580.831 592.811 590.959 607.674 623.486C619.547 649.467 611.103 685.521 585.689 699.485C560.019 713.613 522.615 696.857 515.783 667.615C507.584 632.572 543.725 604.846 574.322 603.154C604.92 601.461 636.168 619.591 650.686 647.268C665.778 676.083 658.942 711.842 638.79 736.082C629.107 747.908 616.214 756.532 601.733 760.869C600.389 761.263 601.122 763.332 602.421 762.98Z" fill="url(#paint0_linear_158_129)"/>
<defs>
<linearGradient id="paint0_linear_158_129" x1="360.025" y1="779.284" x2="140.206" y2="-115.21" gradientUnits="userSpaceOnUse">
<stop stop-color="white"/>
<stop offset="1" stop-color="#03041A"/>
</linearGradient>
</defs>
</svg>
