<svg width="493" height="797" viewBox="0 0 493 797" fill="none" xmlns="http://www.w3.org/2000/svg">
<path opacity="0.5" d="M-35.5452 0.17273C-64.6449 5.61394 -88.3754 28.447 -97.7469 56.0741C-107.452 84.6946 -99.266 115.236 -77.5594 136.072C-56.5979 156.172 -24.823 166.254 3.27955 156.345C29.5666 147.074 52.9462 119.228 41.1647 90.4315C31.212 66.1157 0.152189 51.212 -24.696 61.028C-49.5442 70.8441 -62.2822 99.8689 -58.482 125.335C-53.6778 157.464 -23.0411 175.956 5.16666 185.673C39.3325 197.511 79.4385 200.21 106.986 226.056C128.705 246.434 138.779 277.533 135.759 306.89C134.342 321.604 129.272 335.732 121.008 347.996C111.874 361.297 96.6006 372.482 80.0616 373.616C61.6636 374.88 48.8584 360.465 48.0114 342.786C47.0977 323.348 59.335 306.714 70.9283 292.296C93.075 264.77 121.201 237.53 156.952 229.836C188.613 223.061 226.204 232.738 242.066 263.088C260.045 297.496 245.484 337.576 224.627 366.933C213.308 382.858 199.973 397.304 186.84 411.737C173.489 426.412 160.026 441.008 147.366 456.313C123.409 485.337 102.326 517.333 92.6107 554.06C83.4929 588.512 84.9122 625.868 103.351 657.109C120.48 686.223 148.848 707.213 179.25 721C217.227 738.27 258.818 745.784 299.32 754.662L429.229 783.15L491.522 796.805C492.862 797.099 493.482 795.054 492.152 794.75L363.802 766.601C322.045 757.45 279.967 749.207 238.535 738.68C201.653 729.299 164.76 716.098 135.38 691.166C122.368 680.125 111.019 666.992 102.928 651.913C94.2498 635.446 89.5627 617.175 89.2439 598.571C87.2926 517.629 148.945 457.33 198.988 401.507C222.822 374.905 247.389 345.229 251.57 308.408C253.391 292.492 251.313 275.744 243.678 261.489C236.637 248.622 225.487 238.476 212.003 232.665C182.916 219.792 149.602 225.443 122.981 241.36C108.104 250.283 95.0364 261.939 83.3091 274.606C71.3351 287.552 58.7903 301.791 51.2931 317.867C44.913 331.558 43.0804 348.591 51.5746 361.866C59.1703 373.723 73.0806 377.789 86.4273 374.821C115.497 368.357 132.971 339.624 137.255 311.992C141.494 284.587 134.233 255.217 116.806 233.505C94.6056 205.885 58.9812 198.429 26.4598 189.769C-4.34317 181.575 -42.0712 168.141 -53.8249 135.173C-63.2157 108.838 -51.4353 74.6025 -24.8275 63.3926C2.05183 52.0468 37.7236 71.7841 41.7898 100.819C46.6744 135.615 8.09862 159.198 -22.5225 158.009C-53.1437 156.82 -82.5587 136.317 -94.4227 108.092C-106.753 78.7074 -96.6019 44.6084 -74.2705 22.9308C-63.5241 12.3404 -49.8815 5.15815 -35.0577 2.2868C-33.683 2.0283 -34.2192 -0.0489011 -35.5452 0.17273Z" fill="url(#paint0_linear_306_130)"/>
<defs>
<linearGradient id="paint0_linear_306_130" x1="207.309" y1="6.77881" x2="335" y2="897" gradientUnits="userSpaceOnUse">
<stop stop-color="white"/>
<stop offset="1" stop-color="#03041A"/>
</linearGradient>
</defs>
</svg>
