<svg width="271" height="167" viewBox="0 0 271 167" fill="none" xmlns="http://www.w3.org/2000/svg">
<path opacity="0.15" d="M135.677 -100L150.603 -75.0442L171.742 -95.068L179.348 -67.0311L205.133 -80.6378L204.854 -51.5991L233.373 -57.7796L225.229 -29.8928L254.367 -28.1886L238.963 -3.52197L266.558 5.94035L245.036 25.5575L269.042 42.0762L242.999 55.1889L261.635 77.539L233.002 83.1747L244.887 109.698L215.787 107.439L220.039 136.17L192.631 126.183L188.934 154.989L165.251 138.016L153.879 164.761L135.677 142.06L117.475 164.761L106.103 138.016L82.4198 154.989L78.7226 126.183L51.315 136.17L55.5663 107.439L26.4669 109.698L38.3513 83.1747L9.71838 77.539L28.3545 55.1889L2.31163 42.0762L26.3174 25.5575L4.79597 5.94035L32.3909 -3.52197L16.9872 -28.1886L46.1247 -29.8928L37.981 -57.7796L66.5001 -51.5991L66.2205 -80.6378L92.0061 -67.0311L99.6113 -95.068L120.751 -75.0442L135.677 -100Z" stroke="white" stroke-width="1.46154"/>
</svg>
